# xmcd
#
# Track frame offsets:
#	150
#	34063
#	69139
#	97207
#	123171
#	144211
#	159398
#	223695
#
# Disc length: 3229 seconds
#
# Revision: 0
# Processed by: cddbd v1.5.2PL0 Copyright (c) Steve Scherf et al.
# Submitted via: EasyCDDAExtractor 16.0.6.1
#
DISCID=670c9b08
DTITLE=Άνευ ερμηνευτού - Τα χάλκινα της Γουμένισσας 1
DYEAR=2004
DGENRE=Παραδοσιακή
TTITLE0=Σουμπέτη [Μακεδονίας]-Του Αποστόλη [οργαν., παραδοσιακό]
TTITLE1=Συρτά διάφορα [οργαν., Μακεδονίας, παραδοσιακό]
TTITLE2=Σουμπέτη πατινάδα Νάουσας [οργαν., παραδοσιακό]
TTITLE3=Ζαράμο [οργαν., Φλώρινας, παραδοσιακό]
TTITLE4=Λόντζια-Γύρισμα [οργαν., παραδοσιακό]
TTITLE5=Πατρούλα [οργαν., παραδοσιακό]
TTITLE6=Συρτά Μακεδονίας [επτάσημα]-Ράϊκος [οργαν., παραδοσιακό]
TTITLE7=Χασαποσέρβικο [οργαν., παραδοσιακό]
EXTD=
EXTT0=
EXTT1=
EXTT2=
EXTT3=
EXTT4=
EXTT5=
EXTT6=
EXTT7=
PLAYORDER=
